# xmcd
#
# Track frame offsets: 
#        150
#        10512
#        29047
#        37925
#        52147
#        72547
#        85372
#        99617
#        113417
#        124957
#        139907
#        157642
#
# Disc length: 2332 seconds
#
# Revision: 3
# Processed by: cddbd v1.5.2PL0 Copyright (c) Steve Scherf et al.
# Submitted via: ExactAudioCopy v0.95b4
#
DISCID=9c091a0c
DTITLE=Elvis Presley - Elvis Country
DYEAR=1900
DGENRE=Country
TTITLE0=Snowbird
TTITLE1=Tomorrow Never Comes
TTITLE2=Little Cabin On The Hill
TTITLE3=Whole Lotta Shakin' Goin' On
TTITLE4=Funny How Time Slips Away
TTITLE5=I Really Don't Want To Know
TTITLE6=There Goes My Everything
TTITLE7=It's Your Baby, You Rock It
TTITLE8=The Fool
TTITLE9=Faded Love
TTITLE10=I Washed My Hands In Muddy Water
TTITLE11=Make The World Go Away
EXTD=
EXTT0=
EXTT1=
EXTT2=
EXTT3=
EXTT4=
EXTT5=
EXTT6=
EXTT7=
EXTT8=
EXTT9=
EXTT10=
EXTT11=
PLAYORDER=
